<mxfile host="app.diagrams.net" agent="Mozilla/5.0 (Windows NT 10.0; Win64; x64) AppleWebKit/537.36 (KHTML, like Gecko) Chrome/129.0.0.0 Safari/537.36" version="24.7.17">
  <diagram name="Page-1" id="ayWW3eKNdWkRORRCTG4c">
    <mxGraphModel dx="1221" dy="608" grid="1" gridSize="10" guides="1" tooltips="1" connect="1" arrows="1" fold="1" page="1" pageScale="1" pageWidth="850" pageHeight="1100" math="0" shadow="0">
      <root>
        <mxCell id="0" />
        <mxCell id="1" parent="0" />
        <mxCell id="MYvb_t0MB4lMacTX5NM--2" value="" style="text;html=1;align=left;verticalAlign=middle;whiteSpace=wrap;rounded=0;fontSize=24;fontStyle=1;fillColor=#dae8fc;strokeColor=#6c8ebf;" vertex="1" parent="1">
          <mxGeometry x="230" y="250" width="530" height="100" as="geometry" />
        </mxCell>
        <mxCell id="MYvb_t0MB4lMacTX5NM--1" value="" style="shape=image;verticalLabelPosition=bottom;labelBackgroundColor=default;verticalAlign=top;aspect=fixed;imageAspect=0;image=data:image/png,iVBORw0KGgoAAAANSUhEUgAAATMAAACkCAMAAADMkjkjAAAAbFBMVEU6l93///80ldwnkdsvk9wsktz5/P4hj9tPoeD0+f3t9fzo8vt6teay0/C21vHC3PNyseXN4vXb6/hep+KSwepmq+PT5vaXxOtJnt/a6vi+2vLH3/RLn9+gye2IvOh0suUAidmozu6BuedfqeLrOjl7AAAXR0lEQVR4nO1dC7erLM5WQPHSq1Zr291W2///H78EUMErdnfPnFmfz1oz79mtFXhMQgIkOs6KFStWrFixYsWKFStWrFixYsWKFStWrFixYkUfBMAYw//8t7vyAaDrlHIu/wej+A806FHqBNlh89pkWVoQaPZ/iDnCKPl5nvd5ksRRkuT7+yYg1Pu7EYBw0eC1u4RuCz/en1LC/ydoI5Rk1cV3O/CTKoOv/qRF5hx2YbdB2ertUVD2F41+D6CR2a7HVzOC64F436aN0XQ7TJhq9Pgk/wHT8CnggZ+jie4DonvxVWFj/JBPt4iNnr//qL4Ez6lGRUzDtvjaYyf8kFi0CMJ2Jv+ihhLvbnbzctvez4D7dn8xlaf60gBocLRiDBE+/saY/gKEPjVeouu5gKneYwIeeB3F6RprfL747wdA2L1PzQTywPvCQL8H5lzbJ7qFCbKrfuAMsGzbGrtb8VtR8wI7tdSe1OlfEjWWNWwkj1GPAr54XBpmn/RXTdLXQsYQ+3/HW6OnulPxpidhBghtjfadf94iodUHlEH/in+ENL5VPfIf8/4j46/a8N0+NmqE3D6iDLqYWtsEDC44hH2M0ynxVFdhjGjtDxBa93/vWPWHkZrj/EOng7DLICFhvH1kaRAEafa65yOObmbVSbAjwel6hNgvii97CCZGaGO0eF0veBWEiOfULtIhrKZsY2thQUGVH5d/ZF8IG3Jj4+rtYEwrAdIBgx6i1rcgjbH0ajrnyWNIIBjZ5IZLGt0yiyF5irI4WDAREif5BWl0gLLb2+utAYDWFPd+XDKrnrrRbRH23GLCHgNRT/ya057ali0cfCOdt+WzJ732+rkrRkwj8eijp6Ph9ERAnBFPOcoMTaJBPHxdMu1H1TPmbannQ+hO/rJaSho9d/t4nAxhGb13I7p4ShJoNh4A7lpRm/SoNxODIpm8Zv+Bs1hL6GaZc1s32SB8zTXuFV1lvo6PiT7GqQC23+qXbNqjPo82QBwp9/lH/rXSMf9nyY+J0zEhuUVAQWhXJl5jP/I2U1QAToINanfZUANS8fuiPhSD9w0eldPaZUkYSPdm33Z27gp/mQrnj5g0ks5wAS2CgPSeQR+HEd9Ehi99QSE/9x7N9NSbrmqZOduTxg5mzypbt9h7m6SNzD10xKzrOLLaFk8hdIZ6VmtmzyAhF1UnMOJ3N/zpXSht09hDHwA3NbPbygRYapL2HNJOz2qlJN/PXwPyONQ3Ko34tvudFB/zJ0KY+6QpGb/ZDr0zpl7TU2Cm2kUDz4k4NmTYYsBOk0K13fUkCykLW40gIsca9vxeJnXhbSdotWQrHJe5KR3z/ugLGuu5Mb/Btt+AssZdzawpc+/aF0xN4GHQIYdJ7cztRu9Vep/iQYsxDsaNn4f9IRELa2YPv9c9JWY5736s2jVXeurVrp6kUTn1plahrSlmdsF282PvfuCGT/XqTV3zk+Yi9KZOT1qzzPy8lbIOl2OkkR/x8d5m/Oyk92iRMSN8E8GDD/QbxF3hNu//e1Qdf4AQ8cw7YtZ4nAO+Rk1axwdVgmajZ1QXk3CBMSNUeu23cqvdoSfc1H5HxgpJp4tEWihzxm6U5zwgA7Xr7Juzp1KIu4U3b0RNJ3vN9JyaqszRHY5uBEVn9maXouuiyfUYU7xbxRyUAdaop3ErKT2XeQqMGaCnWKNg5NQQlXB9ZuyMqWMuv4Cfzv1FPwyNbSgbkjLBzmaINCWx3Rm1D8OfPduKGTnok+GBuMZfxpWFzY72EpguFNv0iJyRMkHa0ESgujpLgjGrDUcmg5QZo7iUethjKue3p83uBCmdM11BGsme2k4atGlchOqzDqoxq+2tVbMTQf68tT9i07K+3S/D9F1lT7atapJiwvwPkKapoiRjdh40VjRGVg0GwEzvvyp1o2UEun/MmXJoW9ljjS2bGXo9hLBd5VA6kc3QwLXBWqsmgBpWKi4r7S+DetN7+waMIcmR+03P2c+M+Z8iTWn1Y5oGI362jLUkZ4ZP5jq63JlzmPPtOcBwAOVaeNxQNjdjGmNoSKt/LhW96zV3OdO9s5lrDXSU81Vof5hGlH7Z1/ANbWBi9qmftrViqq51XQ55t5kdKKKv08/psfFDU+WupeaymJ76wIbWr2DenQuPVk0BrDb/J03KGKe8tViU6uup9KmegyJNTgLdSKMDY5tn0akLAioXRgrhnmsRUjTkQH0Nd0MbpO8uXarGlunbBux1ifJ6x8o75FHy0L71atKkTZN9Daf1mmmOVbhoEQgngYw20MMJU3uIrrZfQMc9EzSJxRQSKCkzSJH9kgv9avFMc0wa0uREoCb5ac50VyNatAokOMt2WwWuCazJmUM/PTkziNg0ujKMwZm6WcnQKWtMiOgS8/u0NzYNtUxxNu0/8Hy0NxacFa015LpvbEZs3R2a36ET2XC/4ezUp6z50D3hFUqm3Eq/R23TcD1DOWjTRopq51WSJXImNE7bXJvgzGrbyRZ+Z9G/5ayOaA46Z826Oi7YNJbVcBC89284WyJn6KSEZavZU5yRTw5PjuDe6aSmm/WkuRnSTUFDvZSg66anvC2xN6p0c/qUDNc4W6Sb+ACPZTNZ+gZn3efEvyZovb0lyZkIp1hak6YpjFr4lguJSuqu2kBZTZng8W/nANwEuLdRZjgxB3wz5uydbjB8jYY0fWI8JWHjXrDNJYzPg5Qt8DU0h3OJryFkPm2piLkWS3VtDoys+g5l/YUXw6dtvA1d0hh4QkT/Q5fCOgx6yw+X+7RLQvQdrpq1PGlq2l0Mku0sPUE/iIFFBBll1LETCZQ3MXXsqkWXsj+NnYSYPbS1ja2+PjLwnMjPNyL1gX3ETozeSpoFaZ5ygtojmr3FuMHBmzG6LWl49DbWdwE2P9p9hpYu2dP9NU4DY+muBS0graHs3VkLmtlIMteC+Pz2gewosvUkmmgx3Z0Y3O3qH6RcisGt196aozVpfco+WnMkh+mLFcRksy+r9peJsSEw3Ca3OCo1hZGF9/7admPTJsWlr5jN2vac/2CsbT9/Bo6o9MCwUxHFSfOwkZSfuWauxg5x2ZwvG8dx5NSnjGZ1E8oKi4mgpszVz+/JrdLuwY8+AboveuO7edMp/G3gBZzJI+cyfHJ0szgag5mnYZZh9Di2msX0vTr2o5TnNTqaISmr9+pmN9KNrTTf2VRzP/DwlJ7/Fn5REcRP7tzA09CXLsaXey0Of47gOnq2WA3UaJQFM6QNUlbTP38yyNgTvvN4ehog4gC2n3FU6VN5wfzN8pAaS2QTx974hxPBOGXDZw9a0gZFYJgyFVPMeLTi95XWt5A+JiN1mVAa/wjKrqXU663p5g8ddWzwGWnbqWEo62LuM7bqOUDaCGUqnu+uAgzAjAXPZTzeQcKFyd9TkRl14fUvTTGb9gj5ZKLACGWTRlltbB3NiyZs2ghlDpfToc0Kv74c5PpeKvZsBg6tEpqh7EbP8o3dSWjt2m9LY5dkxsdbnlU7l5Gq5uOOGWr2U16dn7MRypSnZ3U0lhlPHt2uEy9SMyQgjDoPwdidS0XMeb0tFlHjNNZldqZeGBHM7lTWZ0M7g20kzVi4baQs7CYJKK/LKoAkxDgg9uQJkPa8B/WeFlYMKl4yFH5Q/hJXb3ltZd3UPGA2eNrdgLeItNP85q46Fdg9OdGSpvsT9TGNLmXKgZh95GoMhgcQFiDUWxrcbgcqhO1V7VDC8upRlOwuvO5oU25qJ/ZUGuf6bU6weRP5Yl08LMagTsL21iPrvbutfs6qkqPspaJ4cuXFcp2CEGOn+0JTzHfiJz/eZlgFqwh+fpyy5Gxz9VUfWu90W5rHZTc2bXrdjLRRjHulOrg0qL1cEClpZtAluu73fDAVDlsfv+icEr6VOKRzSc/QYrKvzo/H43zf1ytgu58ya1bDdqW5qWTh3IgW33YHEuyWwZozIYdeogToTDdzBUjr5+fWqSELcnfM9fpricoTbzh/3jpadDmRMmid/qrs2CbbJTgW2KhnZrtDoeax/pokC/qZrPTek7Lapo8fjOyhm7255yJZNz47JcnO+zgMfT+MjtWmKOlTW5A9l51zBRbhat1kMC9p1pSBtst92qQXLwzlIvaTBnmdymjdYH+d5qjKRvj5uaC8hJ4QBv9xNnttjgyzsuPVLznA1hzhGYNNVYAG9andibTbCdSbGZbLh6rJbn5NHJR1bmaU3Lb3+73aXzoaTHorYvbnJB3tRMoIZfYlO8TdlF21l/QW9Yz2WFb5qH9S+FySbfczDUlapt1dywU5jKJNZ2Lbs5/4NoN6s3C3uCRLTdlgmuMUvF5IE2elsx2x1JesJL0VxNm1ui560q1RZleIRYdyOEYXJ8c6US+FLjnlqTCwBXl8l94j79EWb4PS6VU9WJyQh/0d28KLPqivRVROupss4Zs56pRP8lFNkoE83WRDSnLY5ZFkyA+T27ngPB2Qv15CpA0IGSy3E39UkowwRZp/sK99k4UfP3HEYDKXf3sVvOSkCNL0x4E5lGTVkEb1PWu7TpOBRj8tc9WQ5m4tayyxqhaOzygD4R45XBfdqtPm8M6ej/OuX+5VStlnlOnjbPCRlsibNboSbuanAsKbBKRPy1Jhk1Mz5RQ+sT9No50n9TllTjt7wm0yPtknxt/N09r+pqYj/yw/Nf9QsgUINwzp549cgB6a+OLyomMHA4hHN+05MLuFgPEmM7vg2UD1yyqv+sbn8bd1DplWyymu0n5RclwPTO+tTc57dSOWYrR81Ch+W0LS0ZNaFleVGhgBfWg2N9m9UKo8rEqPtVY95my2mofzlQqehD8WHeG5Lvc++6gDvi9Q5qComXY5zq/V+QQ4V9e8EwAW36kUyxz7QwJx9p1Cq9J2L45eRkBoYTWEffCFgr51k4Hdkf5o432rdjR/xLFdkpIVCHWqGcscbr9boxxYu85qKAQJX2wTX4Txvbvh1Eiex/Fa+MfNwDLab5ukxXnqPGd4Tf/Vou41COPOYRf337kQX5+OfQXXZU3S4Dzs9sf7wx+96OHLwGK4TvrYHS9xHGLl1uP1lGHN8r/rPL5N5H3eJ+3iYBgftxto9N+pFj0LQsDXoJxjgWDxDpm/7zoRx8NJ8X6/A3FU3PuHX0/xT0HV9P1vd2PFihUrVqxYsWLFihUrVqxYsWLFihUr/l/hG2vYzPvaDujfY8n75olRDwb/xN96m2WvEhi8cZXEvXxOIgrz2e1lkLqO33+AeVbtrc9qkuK215JjiXO7nYhIQPvkuKfRi9x1o7yTDkrS2x5wPY0c9DCuzcS1+/3NpiDDL8Fju5dUIEROcXscE5OtdwxzUxa8uWf4xic3IV5BCEv1T+sMKX+oAAYher/b+pm7v39r8WLOGkETqT87UXNu0avIBkBvmA5OSBHpJa+As/idZY94SI7JT6RX0gLO8jRD/FbkLbCQs8QPa/PCQDgEZwOvKFvaiVwVwHM7nCUcN7jjgaoSJHUjk7Mj/09tEy7k7HJrikzjUKScUTUiRjm+yBb/AUOVp1RJ/Vn3D9b+2ytzN4N/U8cNeXOx4AwPANGrKpoldp25OP1B+I8blW29MuSsOSwEzTueKMkrdsTlRdhLwsUcQTytei/eU1xB1PTB6utZp5viIw8urjnzqEXlg8CNszrBF3q5Pwt7VuRX2eYmD93wGBBW5QdnH4JNJ/R1gc9u8nWG3nsPf+SYhlhfnHGsJXYM3csxz45H1z8e89o4NpztZcUUQu6J70a7AtpM8xyvPdbX6pyxTX6mVRQCxxu4s39MhQHJrxzUPLp7pNiFbnxSj3Rz8V0sr0dOuWjFu8sOppeK4ddH7KYol0k2F7xvXEjOiLfNd/NnvoEznqjUS9Cn7C44C0SxQnGAP8lj90To0X1EbhjB47ngZ5EslYsZs3jBHU1XLv+N7/9UycpuneGpc4a6WfjiIywo6F/gEbgbVk8P/iBnZ3d7c0NXnCQVrUOP4RdR5SYJnrf0XcxiE/qO5QMv8OHNwzRL/ITKIhbe1j2zZkziI+j/dg/3DSRnIP7hvCEXnD1kvg95uxdec4bpjEBUnIJjmh3wUHp8KWBe83L3UsBnL0ylxmpgB+qx95NgGmTy43n4arEH+IfgajyxAbBnenMwB6Tv7OSLeROrD+0I3KySNX/AnunlFjfuraRSzYCzJMpI4Hi7K/jKMLbcE5NwXFAszJvEDqUnwTfcDD5kRYzp+yE+Giy2gJrkxdAK27txAN08+FjqDA24n5FCyhmtBl5mN8yZB7MldhkU5qVzBp2W6VrADXDm48ENaF/OGPyMPwS1RhtDxEOXxdvoA39LKM4BRM4BrRFvhEm8FRU8m6P4OfB9pUK6eXstNO/HAgXBomsZE/fz1MwCjR5kRjUmreJQYdzQ5A8wx0R+YuJRYapBvo4wTcOPYopelBgTMB0RoScHfGsycgZDssroE+x4kqgC7uJpnEGLTZlN+Leo8QKipzwTiqWwCtdXh2rZrk5OpqJESDtv6vVwYJjh/nbDSn3gQLBQZX2ChIOE9efNRrNRzuTd8QQ2iB5+iDfDn8PARVqfYAj+uArpLEH9UVSpQ8PjA7/ZgDrCY1K1amgE3YSrY9EkcBY8LJOQBDuYBo+xDpglpnHGo7ZkEvRHWFjazMlgBZ8M80iuGcoKv9TVNeCxg1aM+xo4IrJH8ftxXUWE6MCAr6HZM5UFTIv7FQ2g5ExcTx7uVfTtCn2EHiUyfPDRBcQiEm/3XLh7Ct+kBLqlXhAH/5IMU8XZ2Xg9yhxnDtuikPg+PMRK40xzPKlySMTTqdsEm+RhXmJy8JBMlcOP9E7ImZAXAvfZsKCuBkuE4Rn1zwRnwm2U9UDiW6U4i3XOmOBMS3EICE3clN7dAh4wpehdQzfVoxVSAJzJ+4pKBpZHxyU7ODJ6xpmkw1k6zhm9CFI8B536F/ZOZVeDnL3YDGdSxwPXrzmblzMxNjSxBzD3fEjOas7uTiEh1LbiccLBpL1/sNgGkPdibTd1zp7+bHUinTO8wSZ25azT2rOkfdFhzRlQoSprUl9KIXilWzCuMIEo48f9SXumOEvgPsRXyo9sqTlgmjMUDiwqQEY5A4N1pe0pQwqzPOYXHdzzCSXM29WvQq/tWcNZ8LasF6E4QyMsPHOdM7Bticg7kPOm4Az6FwujDzP7hcoQC3jxKXwhJ1RwNrCMWs2ZMxQ7EZ4Jzbm6e2mB9yjjJHDDOc5yUSwGk8FH7BlMjLICgywUwaPwBNwQEuY3X/odqpsHdEF1zlJ6sHv9jOJMlJlDe6RzhlbmRjjn2ZPUnOFrZHP87IDXk8MZT/g+gAi8w8XBi33pAEjO8FUHEEPpnIHmpJWoSoMLBBXe4C7GiTUfgjaJcJCzPUyRlOPbn0c4w34k2A9yfUp3JsGLoP/RBe8G/qX4OvWRfYMzgqXGRt8obnAWKUORYPsNZyIOwLrf6HU/RBwg1QhLYwhPfOPhiwx84VOjV46vVhV/COXFeVQ8Tyw0HWlxgIKor46FW/0LRlypYgTc+ZE4QC4dAMshxh0dzvaKszOrOyg7JSquCIf/rF7dRJxEfY2ZLyZnIh1zqHhwh7Of+Ca5uIgVLXKKMQ4qEvEpc7aR78dbDMRiVUGJOPfY96N9IBz5K3wfXWWBfiK+uKWiUW8Xywrz5Br6TcI3eccXQF6lqrC4uEFcySVIAhGt32Q6k0O7zMtesapon17gdg+eJMDZOz7KoDEW1TvZPUb7TpwK+3FUrl8u+kGcOJFRESFn+Do8ih4096U3UcySnpN4/k3MhKpnqZYAZOxPlDoR4XXj/3nt2oQnFj5kBxhp/o0ZOO0fjqdSsPDX7Vq7Wq9u0ljE5az+s3tt+8hZvcBNPGGquIgfVN/b5QvWdrruR7MG0qSE6d1s7svk14x+I3NsaPVK/8z4fnipa7oX5m/me2yznDZzzXpwf8WKFStWrFixYsWKFStWrFixYsWKFf8t/B+/IiVZrkApbwAAAABJRU5ErkJggg==;" vertex="1" parent="1">
          <mxGeometry x="230" y="250" width="187.2" height="100" as="geometry" />
        </mxCell>
        <mxCell id="MYvb_t0MB4lMacTX5NM--3" value="&lt;span style=&quot;font-weight: 700;&quot;&gt;&lt;font style=&quot;font-size: 19px;&quot;&gt;A comprehensive guide to Microsoft Bot development (Python) &amp;amp; deployment on Azure, with streaming&lt;/font&gt;&lt;/span&gt;" style="rounded=0;whiteSpace=wrap;html=1;align=left;fillColor=#dae8fc;strokeColor=#6c8ebf;" vertex="1" parent="1">
          <mxGeometry x="420" y="250" width="340" height="100" as="geometry" />
        </mxCell>
      </root>
    </mxGraphModel>
  </diagram>
</mxfile>
